#!OML:ASF F:\VICON\USERDATA\INSTALL\rory3\rory3.ASF
:FULLY-SPECIFIED
:DEGREES
1723
root 0.175138 16.7543 0.863221 177.487 -166.094 -177.938
lowerback 10.4003 0.277655 -4.30981
upperback -4.50272 -0.256424 0.150964
thorax -10.7098 0.183162 2.64349
lowerneck -15.0509 -7.24229 -14.8418
upperneck -15.341 -6.65675 14.5725
head -1.08649 -2.77611 6.72011
rclavicle 8.11911e-015 1.04362e-015
rhumerus 94.0996 -30.1539 -40.4747
rradius 31.3524
rwrist 1.04327
rhand -32.9826 -1.88812
rfingers 7.12502
rthumb -6.19737 -31.7775
lclavicle 8.11911e-015 1.04362e-015
lhumerus 84.6147 34.0978 29.9957
lradius 24.1288
lwrist -23.3836
lhand -17.9355 31.2542
lfingers 7.12502
lthumb 8.33261 61.0698
rfemur -14.8202 -5.45729 18.2858
rtibia 55.9799
rfoot -28.3636 -0.344325
rtoes -10.2484
lfemur -7.81292 4.0338 -17.0725
ltibia 46.7572
lfoot -25.8006 5.5202
ltoes -26.0689
1724
root 0.19404 16.6464 0.877812 177.281 -165.694 -177.867
lowerback 10.3953 0.370028 -4.3911
upperback -4.19927 -0.138274 0.126384
thorax -10.3779 0.232 2.63912
lowerneck -15.1981 -7.19249 -14.2742
upperneck -15.1367 -6.69011 14.1353
head -1.04573 -2.81305 6.47344
rclavicle -4.80873e-014 1.83876e-015
rhumerus 93.3572 -30.84 -39.6747
rradius 31.7079
rwrist 0.82776
rhand -33.1023 -2.07938
rfingers 7.12502
rthumb -6.31301 -31.9653
lclavicle -4.80873e-014 1.83876e-015
lhumerus 84.6689 34.2302 30.0756
lradius 24.2536
lwrist -23.9218
lhand -18.2359 30.6784
lfingers 7.12502
lthumb 8.04268 60.5054
rfemur -15.2182 -6.13419 18.1384
rtibia 57.1903
rfoot -29.3214 -0.357109
rtoes -11.435
lfemur -7.79053 3.9136 -17.394
ltibia 47.4867
lfoot -27.1942 6.41397
ltoes -25.9488
1725
root 0.213809 16.5625 0.895118 177.152 -165.315 -177.991
lowerback 10.379 0.369754 -4.23631
upperback -4.02934 -0.106419 0.170033
thorax -10.1804 0.231708 2.59236
lowerneck -15.0311 -7.05684 -14.0593
upperneck -14.9578 -6.5856 13.9632
head -1.04742 -2.77772 6.38846
rclavicle 3.25199e-014 4.37326e-015
rhumerus 92.7591 -31.1672 -39.1917
rradius 31.9406
rwrist 0.97231
rhand -33.3429 -2.10681
rfingers 7.12502
rthumb -6.54524 -31.9857
lclavicle 3.25199e-014 4.37326e-015
lhumerus 84.1682 34.2936 29.6085
lradius 24.4114
lwrist -24.1469
lhand -18.407 30.6143
lfingers 7.12502
lthumb 7.87754 60.4475
rfemur -15.5105 -6.66391 18.1917
rtibia 58.1069
rfoot -30.1147 -0.335444
rtoes -11.3362
lfemur -7.7138 3.6181 -17.4753
ltibia 48.0086
lfoot -28.1114 7.53247
ltoes -26.1445
1726
root 0.23288 16.5082 0.919558 176.975 -164.976 -178.225
lowerback 10.3653 0.319795 -3.98907
upperback -3.87454 -0.125544 0.249108
thorax -9.99716 0.203311 2.54117
lowerneck -14.7423 -6.94959 -14.1293
upperneck -14.9292 -6.47189 14.0449
head -1.0878 -2.7304 6.43951
rclavicle -3.51476e-014 1.98785e-016
rhumerus 92.3558 -31.1466 -39.1872
rradius 32.058
rwrist 1.83616
rhand -33.7808 -2.16524
rfingers 7.12502
rthumb -6.96796 -32.0306
lclavicle -3.51476e-014 1.98785e-016
lhumerus 83.4796 34.322 28.9324
lradius 24.6227
lwrist -24.1369
lhand -18.5053 30.2755
lfingers 7.12502
lthumb 7.78268 60.1123
rfemur -15.5161 -6.8828 18.3594
rtibia 58.6856
rfoot -30.7341 -0.236728
rtoes -10.9361
lfemur -7.39622 3.12081 -17.4059
ltibia 48.2427
lfoot -28.7857 8.37129
ltoes -25.5994
1727
root 0.24929 16.4816 0.953994 176.816 -164.594 -178.353
lowerback 10.1603 0.304099 -3.87186
upperback -3.71943 -0.112388 0.300228
thorax -9.70473 0.195703 2.52588
lowerneck -14.2021 -6.91297 -14.0671
upperneck -15.3719 -6.48522 13.9623
head -1.30271 -2.7583 6.42758
rclavicle -3.58868e-014 -6.95746e-016
rhumerus 91.8962 -31.011 -39.3028
rradius 32.1727
rwrist 2.77762
rhand -34.4748 -2.05428
rfingers 7.12502
rthumb -7.63791 -31.8964
lclavicle -3.58868e-014 -6.95746e-016
lhumerus 82.1407 34.5361 27.1164
lradius 25.0322
lwrist -23.0055
lhand -18.6777 30.0499
lfingers 7.12502
lthumb 7.61623 59.8927
rfemur -15.3535 -6.74957 18.4097
rtibia 58.9206
rfoot -30.9861 -0.323915
rtoes -12.0465
lfemur -6.92407 2.5748 -17.4629
ltibia 48.1669
lfoot -29.2789 8.84656
ltoes -25.5692
1728
root 0.260325 16.4826 0.995095 176.662 -164.137 -178.309
lowerback 9.85166 0.320218 -3.97093
upperback -3.64655 -0.0890065 0.30327
thorax -9.44498 0.206486 2.5789
lowerneck -13.2995 -6.9047 -13.5761
upperneck -16.2636 -6.63512 13.5191
head -1.72282 -2.88025 6.24566
rclavicle 6.96989e-015 1.42131e-014
rhumerus 90.8293 -31.0899 -38.6068
rradius 32.4901
rwrist 2.52287
rhand -35.3117 -2.13741
rfingers 7.12502
rthumb -8.44562 -31.9485
lclavicle 6.96989e-015 1.42131e-014
lhumerus 79.7113 34.813 23.4981
lradius 25.6459
lwrist -20.2285
lhand -18.8466 30.3419
lfingers 7.12502
lthumb 7.4532 60.1906
rfemur -15.0766 -6.34471 18.2747
rtibia 58.8149
rfoot -30.9878 -0.369144
rtoes -12.9592
lfemur -6.3147 2.16719 -17.7132
ltibia 47.7929
lfoot -29.4568 9.43371
ltoes -26.3288
1729
root 0.265441 16.5027 1.03446 176.505 -163.664 -178.33
lowerback 9.58437 0.355555 -4.10368
upperback -3.69095 -0.0451662 0.341185
thorax -9.34093 0.235327 2.68551
lowerneck -12.2353 -6.81034 -13.267
upperneck -17.4446 -6.62941 13.3523
head -2.2526 -2.9225 6.21006
rclavicle 2.98798e-014 -7.35503e-015
rhumerus 89.585 -31.0282 -37.8127
rradius 32.8763
rwrist 2.12231
rhand -35.8256 -2.526
rfingers 7.12502
rthumb -8.94153 -32.3165
lclavicle 2.98798e-014 -7.35503e-015
lhumerus 78.2689 34.4933 21.6502
lradius 26.0875
lwrist -18.7201
lhand -18.8393 30.3982
lfingers 7.12502
lthumb 7.46023 60.2467
rfemur -14.5896 -5.64837 18.3009
rtibia 58.3482
rfoot -30.9301 -0.606611
rtoes -13.0612
lfemur -5.6158 1.89124 -17.8448
ltibia 47.2015
lfoot -29.2604 9.95984
ltoes -26.4552
1730
root 0.26556 16.5402 1.07725 176.324 -163.168 -178.248
lowerback 9.21673 0.398791 -4.38822
upperback -3.72505 -0.0046081 0.381728
thorax -9.16806 0.26983 2.88092
lowerneck -11.8274 -6.77325 -13.3163
upperneck -17.8679 -6.59975 13.4286
head -2.43733 -2.91936 6.27063
rclavicle -2.24875e-015 -1.59028e-015
rhumerus 88.6244 -30.7692 -37.3361
rradius 33.0876
rwrist 1.89069
rhand -36.0525 -2.86214
rfingers 7.12502
rthumb -9.16051 -32.6432
lclavicle -2.24875e-015 -1.59028e-015
lhumerus 78.4335 33.8587 22.5198
lradius 26.1848
lwrist -19.3443
lhand -18.8511 30.1571
lfingers 7.12502
lthumb 7.44886 60.0059
rfemur -13.9177 -4.82212 18.2562
rtibia 57.5391
rfoot -30.5894 -0.935592
rtoes -13.004
lfemur -4.87339 1.7561 -18.0639
ltibia 46.4583
lfoot -28.6457 10.251
ltoes -26.6283
1731
root 0.261113 16.6119 1.12804 176.23 -162.746 -178.084
lowerback 8.70361 0.36559 -4.72044
upperback -3.75224 -0.0654394 0.387628
thorax -8.89407 0.253581 3.08236
lowerneck -11.948 -6.79176 -13.3739
upperneck -17.6336 -6.61597 13.4745
head -2.34247 -2.92375 6.28209
rclavicle -7.70291e-015 -7.7526e-015
rhumerus 87.9372 -30.4686 -37.1093
rradius 33.1298
rwrist 1.56699
rhand -36.4902 -2.89626
rfingers 7.12502
rthumb -9.58283 -32.6583
lclavicle -7.70291e-015 -7.7526e-015
lhumerus 78.394 33.3491 23.1202
lradius 26.2929
lwrist -19.8479
lhand -18.8399 30.0736
lfingers 7.12502
lthumb 7.45971 59.9221
rfemur -13.2254 -4.08755 18.1071
rtibia 56.452
rfoot -29.8691 -1.27375
rtoes -13.8335
lfemur -4.18801 1.70486 -18.3694
ltibia 45.6163
lfoot -27.5915 10.3376
ltoes -27.4587
1732
root 0.255291 16.7192 1.18509 176.129 -162.439 -177.98
lowerback 8.22309 0.274141 -4.95503
upperback -3.80554 -0.194091 0.362163
thorax -8.66024 0.198311 3.20511
lowerneck -12.4127 -6.80008 -13.174
upperneck -16.9406 -6.6462 13.2721
head -2.08137 -2.93363 6.1457
rclavicle -2.05866e-014 -4.37326e-015
rhumerus 87.4886 -30.0601 -37.2121
rradius 32.9162
rwrist 1.62815
rhand -35.8505 -2.43999
rfingers 7.12502
rthumb -8.96551 -32.2295
lclavicle -2.05866e-014 -4.37326e-015
lhumerus 77.5217 32.8483 22.115
lradius 26.3835
lwrist -19.0207
lhand -18.808 29.9893
lfingers 7.12502
lthumb 7.49044 59.8367
rfemur -12.3681 -3.42308 17.9848
rtibia 55.1696
rfoot -28.7902 -1.49982
rtoes -14.6484
lfemur -3.4712 1.57588 -18.5828
ltibia 44.7174
lfoot -26.1524 10.0637
ltoes -27.8532
1733
root 0.24804 16.8522 1.24349 176.006 -162.219 -177.823
lowerback 7.81215 0.191974 -5.22879
upperback -3.96732 -0.320327 0.328732
thorax -8.58527 0.152033 3.34056
lowerneck -12.825 -6.76246 -13.2106
upperneck -16.223 -6.5866 13.1928
head -1.81781 -2.88934 6.09491
rclavicle -6.86801e-014 -2.85256e-014
rhumerus 86.9827 -29.5086 -37.1099
rradius 32.4463
rwrist 2.10848
rhand -35.4562 -2.23269
rfingers 7.12502
rthumb -8.58508 -32.0381
lclavicle -6.86801e-014 -2.85256e-014
lhumerus 75.9966 32.1666 19.9425
lradius 26.4484
lwrist -17.2606
lhand -18.517 30.0936
lfingers 7.12502
lthumb 7.77137 59.9307
rfemur -11.4724 -2.79832 17.7758
rtibia 53.7935
rfoot -27.255 -1.51813
rtoes -14.0146
lfemur -2.79879 1.44309 -18.8116
ltibia 43.7914
lfoot -24.2283 9.66378
ltoes -28.7654
